<svg version="1.1" id="Layer_1" xmlns="http://www.w3.org/2000/svg" xmlns:xlink="http://www.w3.org/1999/xlink" x="0px" y="0px"
	 width="100%" viewBox="0 0 567 1000" enable-background="new 0 0 567 1000" xml:space="preserve">
<path fill="#000000" opacity="1.000000" stroke="none" 
	d="
M568.000000,446.000000 
	C568.000000,631.000000 568.000000,816.000000 568.000000,1001.000000 
	C561.929565,1001.000000 555.934204,1001.000000 549.552979,1000.671814 
	C549.600891,999.856323 549.945496,999.215027 550.481689,998.905029 
	C557.548035,994.818115 560.315247,988.711670 560.083069,980.606018 
	C559.754639,969.141235 560.044434,957.659851 559.984314,946.185974 
	C559.931519,936.115845 552.613647,928.516968 542.540344,928.044067 
	C539.387451,927.895996 536.194824,928.274963 533.067688,927.953125 
	C520.304016,926.639404 511.806549,937.504639 511.971649,949.084839 
	C512.118652,959.392883 511.966766,969.704773 512.012085,980.014709 
	C512.045105,987.527100 514.070923,994.094788 520.896973,998.383667 
	C521.792480,998.946228 522.308289,1000.113037 523.000000,1001.000000 
	C517.311951,1001.000000 511.623932,1001.000000 505.438660,1000.605469 
	C504.608612,998.766235 504.392059,997.282593 503.923737,995.883179 
	C501.123322,987.515259 498.298401,979.155029 495.405426,970.818726 
	C494.550415,968.354919 494.703796,966.659790 497.074554,964.835205 
	C503.305145,960.039978 505.340363,950.609009 502.441742,942.086487 
	C499.691833,934.001099 493.309021,929.169922 484.823730,929.035339 
	C476.828461,928.908569 468.820190,929.236877 460.835938,928.913330 
	C456.104584,928.721619 454.888916,930.576111 454.923401,935.023987 
	C455.093872,957.014832 455.000397,979.007812 455.000000,1001.000000 
	C452.299988,1001.000000 449.599976,1001.000000 446.427856,1000.587524 
	C443.303253,991.281494 440.903473,982.301208 437.890198,973.531677 
	C436.413940,969.235413 436.663605,966.307617 440.225220,963.085571 
	C445.588898,958.233093 446.880096,947.694153 443.511230,940.249268 
	C440.175446,932.877441 434.308411,929.095215 426.195129,929.018555 
	C418.541656,928.946228 410.877441,929.232117 403.236328,928.916138 
	C398.505280,928.720520 396.857086,930.233887 396.905640,935.109558 
	C397.124084,957.071167 397.000366,979.036194 397.000000,1001.000000 
	C389.979034,1001.000000 382.958099,1001.000000 375.552185,1000.671753 
	C381.125336,996.012512 385.982452,990.989990 385.987915,982.960144 
	C385.996277,970.639099 386.120361,958.316223 385.948517,945.997559 
	C385.810791,936.126831 377.981812,928.359863 368.154144,928.031128 
	C364.495148,927.908691 360.828400,927.970520 357.165833,928.008667 
	C345.748505,928.127380 338.093750,935.752563 338.015625,947.174011 
	C337.949585,956.830566 338.278961,966.498291 337.921967,976.142151 
	C337.562775,985.844238 338.968597,994.453491 348.404266,999.671326 
	C348.743927,999.859131 348.807678,1000.545776 349.000000,1001.000000 
	C341.979034,1001.000000 334.958099,1001.000000 327.451843,1000.531616 
	C326.977325,978.414673 327.016235,956.766052 326.959839,935.117676 
	C326.953491,932.680969 327.978363,929.016907 323.771210,929.174438 
	C319.891479,929.319702 314.873505,926.705872 312.808655,932.941650 
	C310.823181,938.937683 308.441406,944.802551 306.229401,950.723450 
	C303.812653,957.192322 301.390991,963.659424 298.971466,970.127258 
	C297.025085,968.562561 296.269073,967.001953 295.660767,965.385742 
	C291.559814,954.489563 287.418823,943.607483 283.439117,932.666870 
	C281.320374,926.842102 276.537811,929.188232 272.797028,929.230957 
	C269.015625,929.274231 270.050415,932.781738 270.043152,935.055969 
	C269.972839,957.037170 270.000397,979.018616 270.000000,1001.000000 
	C262.979065,1001.000000 255.958099,1001.000000 248.548050,1000.674744 
	C252.992401,995.902954 257.517517,991.177185 257.826599,984.140564 
	C258.089203,978.162109 258.290924,972.133118 257.822571,966.181335 
	C257.057007,956.453186 250.946991,950.210266 241.893341,949.090759 
	C230.176514,947.641846 221.791702,951.227112 219.132965,960.390991 
	C217.518387,965.956177 218.411057,972.224060 217.972534,978.161194 
	C217.352890,986.550537 218.544312,994.122620 226.278107,999.199280 
	C226.721664,999.490356 226.768509,1000.385803 227.000000,1001.000000 
	C220.645599,1001.000000 214.291214,1001.000000 207.451645,1000.531616 
	C206.977646,994.409912 206.996964,988.756592 206.998428,983.103271 
	C207.002579,967.140747 207.018250,951.178101 206.981781,935.215698 
	C206.975189,932.332581 207.770386,928.914307 202.893127,928.999817 
	C197.945282,929.086731 199.099030,932.660278 199.034698,935.428772 
	C198.915024,940.580566 199.040741,945.737671 198.971771,950.891296 
	C198.951904,952.374451 198.615143,953.853333 198.339584,955.984741 
	C196.822937,954.957275 196.100510,954.565125 195.492310,954.040588 
	C189.622650,948.977966 182.999512,948.497925 176.474228,951.966370 
	C169.936722,955.441223 167.085800,961.563965 167.008972,968.932068 
	C166.972565,972.423523 167.059784,975.916809 166.988739,979.407166 
	C166.806671,988.352783 170.087280,995.224304 178.505539,999.168823 
	C179.148529,999.470154 179.508469,1000.375488 179.999985,1001.000000 
	C170.312439,1001.000000 160.624878,1001.000000 150.547974,1000.674927 
	C153.978577,996.092468 158.992142,992.794067 159.901505,986.360901 
	C161.727310,973.444580 157.681305,965.389038 145.978424,959.489990 
	C141.684189,957.325317 137.182465,955.491089 133.140564,952.929810 
	C129.157440,950.405762 129.082153,945.910217 132.398941,942.734863 
	C136.339493,938.962585 141.412231,939.374146 144.749878,944.392334 
	C146.974075,947.736267 149.039764,947.956055 152.065399,945.994690 
	C153.175903,945.274841 154.383102,944.646423 155.626556,944.200134 
	C159.763504,942.715271 159.795425,940.454224 157.681229,936.953796 
	C152.137497,927.775146 141.645630,926.419373 129.500580,928.836121 
	C121.334274,930.461121 117.439613,936.785217 116.233551,944.554321 
	C114.958435,952.768372 117.551857,959.902100 124.566360,964.589661 
	C129.787491,968.078674 135.640533,970.607910 141.093155,973.769775 
	C144.524124,975.759399 147.371567,978.383606 146.095490,982.982727 
	C144.939926,987.147644 140.889603,989.836121 135.852844,988.779053 
	C133.071167,988.195312 130.054062,986.239990 128.284515,984.000916 
	C126.364883,981.571960 125.004623,981.202576 122.600914,982.682007 
	C121.330505,983.463806 119.928879,984.030640 118.596138,984.713318 
	C113.682259,987.230591 113.281616,988.573181 116.722382,992.963806 
	C118.945869,995.801147 121.560593,998.331909 123.999985,1001.000000 
	C115.312439,1001.000000 106.624870,1001.000000 97.552460,1000.671509 
	C102.987282,995.908569 107.948044,990.908997 107.978477,982.917969 
	C108.024124,970.932373 108.148811,958.943787 107.942932,946.961548 
	C107.744102,935.389038 100.125191,928.102356 88.586044,928.005737 
	C85.423355,927.979248 82.259888,927.971375 79.097397,928.007874 
	C67.582870,928.140869 60.094715,935.627991 60.015606,947.185120 
	C59.949520,956.839844 60.279022,966.505737 59.921978,976.147766 
	C59.562756,985.848572 60.971516,994.454956 70.404579,999.671509 
	C70.744110,999.859314 70.807785,1000.545837 71.000000,1001.000000 
	C63.645748,1001.000000 56.291500,1001.000000 48.451870,1000.531616 
	C47.977276,978.396729 47.858971,956.728821 48.096462,935.064819 
	C48.150723,930.115295 46.363113,928.383118 41.704041,928.985901 
	C40.884285,929.091919 40.030205,929.083679 39.207508,928.990662 
	C34.863239,928.499756 33.827953,930.655151 34.013645,934.638062 
	C34.509182,945.266968 34.706059,955.910095 34.973980,966.548767 
	C35.000549,967.603577 34.699429,968.666687 34.368618,971.018005 
	C32.941196,968.509705 32.092182,967.159424 31.378782,965.740906 
	C27.036346,957.106750 22.079121,948.708374 18.588381,939.740295 
	C15.240681,931.139709 10.158311,927.200500 1.000000,929.000000 
	C1.000000,619.767578 1.000000,310.535187 1.000000,1.000000 
	C138.020752,1.000000 275.041718,1.000000 412.870056,1.239817 
	C413.231140,1.947906 412.852448,2.516123 412.328918,2.870129 
	C385.100250,21.282272 357.822937,39.623234 330.714569,58.210556 
	C329.170776,59.269070 327.859070,62.655117 328.361450,64.406555 
	C334.574585,86.066154 341.153381,107.620766 347.621063,129.207489 
	C352.414154,145.205063 357.380920,161.154068 361.916656,177.224518 
	C369.184326,202.974106 376.178741,228.800964 383.243500,254.607513 
	C384.973969,260.928528 386.529358,267.297485 388.165222,273.644379 
	C387.744354,273.846893 387.323517,274.049408 386.902679,274.251923 
	C383.154724,268.932129 379.406769,263.612366 375.446167,258.021790 
	C371.041901,251.598160 366.850311,245.445297 362.446106,239.021713 
	C359.405792,234.630432 356.578033,230.509857 353.530884,226.112427 
	C350.457733,221.686798 347.604034,217.538055 344.530884,213.112366 
	C336.240448,200.424194 328.081390,188.069138 320.120056,175.587952 
	C309.410828,158.798798 299.904846,141.333328 293.339203,122.499222 
	C289.702576,112.067223 287.252655,101.221535 284.199615,90.318771 
	C277.556641,95.954620 270.632660,101.262779 264.365387,107.257462 
	C248.721481,122.220909 233.954865,137.966812 220.965149,155.396423 
	C200.468781,182.898483 184.497101,212.730331 172.954346,244.983612 
	C160.953613,278.516571 152.757645,312.931000 148.980316,348.371185 
	C147.329727,363.857727 145.442657,379.322998 144.073318,394.834198 
	C143.043594,406.498688 142.998688,418.251678 141.917175,429.909760 
	C140.586685,444.251526 139.418350,458.681885 136.781799,472.813080 
	C131.866562,499.157440 125.774727,525.292236 115.955597,550.330200 
	C107.540085,571.789062 98.961815,593.198669 89.795723,614.344055 
	C82.285316,631.669861 73.762085,648.555359 65.787086,665.682251 
	C64.187645,669.117126 63.035702,672.760437 61.510311,676.744019 
	C80.527901,671.658752 98.670227,666.841431 116.793221,661.952454 
	C136.377045,656.669373 155.943237,651.320984 175.516266,645.997803 
	C196.342148,640.333923 217.069382,634.261841 238.040268,629.198792 
	C246.447357,627.169128 250.350876,624.216675 252.537598,614.802673 
	C261.877838,574.592102 272.616791,534.707947 279.069855,493.862610 
	C282.378845,472.918060 286.190704,452.036530 288.831390,431.007965 
	C290.960815,414.050903 291.666901,396.915436 293.043976,379.862305 
	C293.095215,379.227661 293.562866,378.626617 293.836487,378.009918 
	C299.962433,395.376434 305.348175,412.698334 309.900696,430.236511 
	C314.306854,447.210846 318.158234,464.345642 321.680389,481.527405 
	C324.265686,494.138947 326.226410,506.900848 327.896820,519.670105 
	C329.090546,528.795532 328.935333,538.096130 330.100891,547.226746 
	C332.278351,564.283752 330.517639,581.181030 328.914825,598.109680 
	C328.713379,600.237122 328.204712,602.335388 327.773529,604.820984 
	C334.200531,603.072510 339.846069,601.536926 345.491486,600.000793 
	C366.316833,594.334229 387.133545,588.635681 407.969696,583.009216 
	C431.000641,576.790222 454.055359,570.659302 477.088715,564.449280 
	C499.805786,558.324585 522.488953,552.072327 545.240234,546.078125 
	C548.639160,545.182556 550.329712,543.673218 551.057556,540.223022 
	C553.874207,526.870789 557.263733,513.632141 559.796570,500.229675 
	C561.706482,490.123352 562.742798,479.844543 563.965332,469.618256 
	C564.822632,462.447540 565.286133,455.230164 566.084778,448.051361 
	C566.167725,447.305786 567.335510,446.680878 568.000000,446.000000 
M337.990143,853.448792 
	C342.717194,862.210327 347.292664,871.060242 352.305115,879.655334 
	C353.255066,881.284302 355.932648,882.835205 357.823181,882.847290 
	C388.483063,883.043396 419.144562,882.971680 449.805664,883.003906 
	C453.113861,883.007385 454.088531,881.700989 453.672333,878.369263 
	C452.602997,869.808655 451.102875,861.196350 451.187500,852.618652 
	C451.377563,833.344177 451.252441,813.947388 453.385803,794.838196 
	C456.922211,763.161743 467.171844,733.177185 480.860260,704.469177 
	C492.544098,679.965271 505.250610,655.943115 516.668945,631.320312 
	C525.129150,613.076416 532.264893,594.217468 539.933838,575.609070 
	C540.580383,574.040222 540.795288,572.293457 541.397400,569.881409 
	C533.542847,571.948242 526.632446,573.723206 519.745850,575.585632 
	C471.873077,588.532898 424.004791,601.496704 376.136078,614.458801 
	C358.305908,619.287048 340.446808,624.014343 322.683990,629.079041 
	C320.044128,629.831848 317.032379,631.662720 315.601349,633.897095 
	C303.763885,652.379761 291.043884,670.446655 280.988831,689.880066 
	C270.622162,709.915710 262.933105,731.338196 254.104462,752.167419 
	C251.365997,758.628296 248.731750,765.133301 246.049789,771.618042 
	C245.385635,771.490845 244.721481,771.363586 244.057312,771.236389 
	C232.415497,731.375854 236.898621,691.239746 243.892181,650.358276 
	C233.030487,653.224365 223.069199,655.791260 213.141632,658.482605 
	C162.385223,672.242615 111.676353,686.181458 60.837006,699.627258 
	C54.573433,701.283875 51.876163,704.066040 50.315567,710.135559 
	C42.760578,739.518860 37.938572,769.082825 43.072094,799.426697 
	C47.933098,828.159729 61.180481,851.844177 86.267494,867.735291 
	C101.828125,877.592041 118.531761,883.766663 137.524063,883.137878 
	C156.499878,882.509521 175.512726,883.010498 194.509293,882.983643 
	C196.406265,882.980957 198.302917,882.751404 200.199722,882.627197 
	C200.525497,882.287048 200.851288,881.946899 201.177063,881.606750 
	C167.497772,851.318726 154.438492,813.656250 159.424988,769.514648 
	C160.272095,769.644409 160.632843,769.961426 160.827209,770.359619 
	C166.501389,781.984863 171.205688,794.211792 178.006821,805.133362 
	C195.021957,832.456970 217.420883,855.265930 241.303192,876.615479 
	C244.988007,879.909424 248.459061,883.394836 254.615112,883.194031 
	C271.760468,882.634888 288.937683,882.866211 306.098450,883.086609 
	C310.722900,883.145935 312.004059,881.566589 312.106995,877.045410 
	C312.485107,860.434082 312.737610,843.787109 314.078156,827.237793 
	C316.323364,799.520264 323.639435,772.907288 333.594635,747.007385 
	C334.967621,743.435364 336.806396,740.042358 338.429535,736.566467 
	C339.531403,737.577698 339.627167,738.207886 339.517426,738.799988 
	C336.643921,754.306396 333.012726,769.715515 331.032349,785.334167 
	C328.136383,808.174255 329.516022,830.847168 337.990143,853.448792 
M80.818825,923.982178 
	C85.498764,924.693726 89.079514,923.061768 92.180046,919.436340 
	C95.299576,915.788696 98.968597,912.615601 102.301552,909.143127 
	C103.336121,908.065369 104.059753,906.689270 105.810844,904.182739 
	C99.447937,904.182739 94.560860,904.081116 89.685219,904.271667 
	C88.750526,904.308228 87.600716,905.312073 86.994019,906.179932 
	C83.953163,910.529724 81.018776,914.956055 78.131989,919.410645 
	C76.652946,921.692871 76.713326,923.527405 80.818825,923.982178 
z"/>
<path fill="#000000" opacity="1.000000" stroke="none" 
	d="
M419.000000,0.999999 
	C468.621368,1.000000 518.242737,1.000000 568.000000,1.000000 
	C568.000000,111.020859 568.000000,221.041763 567.609009,331.776062 
	C566.480530,327.210388 565.666565,321.940613 565.020325,316.650391 
	C563.294250,302.520264 562.632141,288.173370 559.722778,274.295074 
	C555.466003,253.989288 550.212585,233.840622 544.307129,213.944641 
	C535.881836,185.558929 524.440857,158.256836 511.198914,131.794113 
	C503.631897,116.672203 495.152618,101.986481 486.612671,87.379974 
	C482.110199,79.679062 476.595856,72.569725 471.531555,65.175163 
	C471.524689,65.157036 471.486267,65.162064 471.307739,64.893784 
	C469.699341,62.589939 468.269501,60.554386 466.798553,58.383255 
	C466.757446,58.247681 466.487244,58.162411 466.322845,57.919449 
	C465.385406,56.623657 464.612366,55.570827 463.798218,54.382641 
	C463.757111,54.247288 463.487244,54.162411 463.322876,53.919441 
	C462.385437,52.623638 461.612396,51.570805 460.798248,50.382629 
	C460.757111,50.247288 460.487244,50.162411 460.322845,49.919449 
	C459.385406,48.623653 458.612396,47.570820 457.798401,46.382786 
	C457.757477,46.247585 457.488007,46.162678 457.314148,45.903374 
	C456.113617,44.397739 455.086914,43.151405 454.043427,41.939087 
	C454.026642,41.973106 454.094696,41.939575 453.961884,41.632816 
	C452.572784,39.852394 451.316498,38.378735 450.043427,36.939091 
	C450.026642,36.973106 450.094696,36.939575 449.961304,36.632111 
	C448.566071,34.844910 447.304230,33.365170 445.945923,31.618986 
	C445.271088,30.887527 444.692749,30.422512 443.978455,29.649448 
	C442.575836,27.856075 441.309113,26.370752 439.909821,24.579910 
	C433.557281,17.836290 427.337311,11.398189 420.953247,4.623306 
	C420.192719,3.191016 419.596375,2.095507 419.000000,0.999999 
z"/>
<path fill="#F5821F" opacity="1.000000" stroke="none" 
	d="
M471.538391,65.193283 
	C476.595856,72.569725 482.110199,79.679062 486.612671,87.379974 
	C495.152618,101.986481 503.631897,116.672203 511.198914,131.794113 
	C524.440857,158.256836 535.881836,185.558929 544.307129,213.944641 
	C550.212585,233.840622 555.466003,253.989288 559.722778,274.295074 
	C562.632141,288.173370 563.294250,302.520264 565.020325,316.650391 
	C565.666565,321.940613 566.480530,327.210388 567.609009,332.244751 
	C568.000000,369.687561 568.000000,407.375122 568.000000,445.531311 
	C567.335510,446.680878 566.167725,447.305786 566.084778,448.051361 
	C565.286133,455.230164 564.822632,462.447540 563.965332,469.618256 
	C562.742798,479.844543 561.706482,490.123352 559.796570,500.229675 
	C557.263733,513.632141 553.874207,526.870789 551.057556,540.223022 
	C550.329712,543.673218 548.639160,545.182556 545.240234,546.078125 
	C522.488953,552.072327 499.805786,558.324585 477.088715,564.449280 
	C454.055359,570.659302 431.000641,576.790222 407.969696,583.009216 
	C387.133545,588.635681 366.316833,594.334229 345.491486,600.000793 
	C339.846069,601.536926 334.200531,603.072510 327.773529,604.820984 
	C328.204712,602.335388 328.713379,600.237122 328.914825,598.109680 
	C330.517639,581.181030 332.278351,564.283752 330.100891,547.226746 
	C328.935333,538.096130 329.090546,528.795532 327.896820,519.670105 
	C326.226410,506.900848 324.265686,494.138947 321.680389,481.527405 
	C318.158234,464.345642 314.306854,447.210846 309.900696,430.236511 
	C305.348175,412.698334 299.962433,395.376434 293.836487,378.009918 
	C293.562866,378.626617 293.095215,379.227661 293.043976,379.862305 
	C291.666901,396.915436 290.960815,414.050903 288.831390,431.007965 
	C286.190704,452.036530 282.378845,472.918060 279.069855,493.862610 
	C272.616791,534.707947 261.877838,574.592102 252.537598,614.802673 
	C250.350876,624.216675 246.447357,627.169128 238.040268,629.198792 
	C217.069382,634.261841 196.342148,640.333923 175.516266,645.997803 
	C155.943237,651.320984 136.377045,656.669373 116.793221,661.952454 
	C98.670227,666.841431 80.527901,671.658752 61.510311,676.744019 
	C63.035702,672.760437 64.187645,669.117126 65.787086,665.682251 
	C73.762085,648.555359 82.285316,631.669861 89.795723,614.344055 
	C98.961815,593.198669 107.540085,571.789062 115.955597,550.330200 
	C125.774727,525.292236 131.866562,499.157440 136.781799,472.813080 
	C139.418350,458.681885 140.586685,444.251526 141.917175,429.909760 
	C142.998688,418.251678 143.043594,406.498688 144.073318,394.834198 
	C145.442657,379.322998 147.329727,363.857727 148.980316,348.371185 
	C152.757645,312.931000 160.953613,278.516571 172.954346,244.983612 
	C184.497101,212.730331 200.468781,182.898483 220.965149,155.396423 
	C233.954865,137.966812 248.721481,122.220909 264.365387,107.257462 
	C270.632660,101.262779 277.556641,95.954620 284.199615,90.318771 
	C287.252655,101.221535 289.702576,112.067223 293.339203,122.499222 
	C299.904846,141.333328 309.410828,158.798798 320.120056,175.587952 
	C328.081390,188.069138 336.240448,200.424194 344.342712,213.264343 
	C344.373993,213.693237 344.000000,214.000000 343.686432,213.881805 
	C342.362610,212.684235 341.174896,211.722458 340.369720,210.507217 
	C332.824707,199.119873 325.096405,187.843430 317.899200,176.238403 
	C303.454926,152.948105 290.766876,128.809143 283.943573,102.006393 
	C283.720398,101.129784 283.008575,100.377586 282.256805,99.119255 
	C280.376556,100.333488 278.488800,101.131050 277.156433,102.477989 
	C263.361511,116.423828 248.966187,129.854324 236.067215,144.591705 
	C207.770233,176.921753 188.132065,214.198151 174.390121,254.904388 
	C156.314545,308.447540 149.853882,363.755981 146.895813,419.764435 
	C146.099319,434.845734 144.632919,449.951782 142.390686,464.883820 
	C137.881912,494.909698 131.041245,524.442200 120.001373,552.814209 
	C111.997375,573.384033 103.758934,593.876038 95.022064,614.142700 
	C89.040031,628.019104 81.963959,641.421448 75.500076,655.093811 
	C73.517311,659.287781 71.941864,663.674377 69.762169,668.991760 
	C72.556313,668.567932 74.007347,668.479614 75.386330,668.117126 
	C84.407204,665.746277 93.418709,663.339172 102.421799,660.901428 
	C145.990555,649.104492 189.451996,636.885071 233.199585,625.794128 
	C243.338730,623.223694 247.005981,618.655090 249.358917,608.795654 
	C260.648651,561.488770 272.431763,514.306702 279.423676,466.110016 
	C281.929169,448.839142 284.037689,431.504547 285.979309,414.160065 
	C287.309448,402.277618 287.975159,390.321808 289.119110,378.416199 
	C289.254486,377.007355 290.411224,374.701416 291.314606,374.589600 
	C292.749298,374.412079 294.934998,375.325226 295.789917,376.508759 
	C297.413208,378.756073 298.661377,381.418030 299.467834,384.088226 
	C304.475281,400.668060 309.756104,417.183655 314.117950,433.936188 
	C322.134033,464.723663 328.862122,495.786835 332.248627,527.501892 
	C334.352356,547.203247 336.291718,566.866882 334.120667,586.699829 
	C333.734650,590.226379 334.065826,593.831421 334.065826,597.922546 
	C336.564056,597.399841 338.826538,597.042908 341.025055,596.449158 
	C376.561310,586.851501 412.091919,577.232910 447.618713,567.600281 
	C478.805206,559.144470 509.975769,550.629639 541.182495,542.249512 
	C544.438965,541.375000 546.301941,539.852966 547.171448,536.477112 
	C557.551636,496.174255 563.175110,455.189728 563.868225,413.622559 
	C564.264893,389.831329 563.513733,366.013672 562.932068,342.216400 
	C562.635803,330.095093 562.035400,317.943542 560.760193,305.891632 
	C558.040710,280.191132 552.968872,254.922592 546.057678,229.990982 
	C536.278625,194.713745 523.338257,160.615082 506.759644,128.059631 
	C497.034851,108.963005 485.146637,90.970825 474.339844,72.418777 
	C473.055756,70.214325 472.455566,67.611473 471.538391,65.193283 
z"/>
<path fill="#231F20" opacity="1.000000" stroke="none" 
	d="
M270.463196,1001.000000 
	C270.000397,979.018616 269.972839,957.037170 270.043152,935.055969 
	C270.050415,932.781738 269.015625,929.274231 272.797028,929.230957 
	C276.537811,929.188232 281.320374,926.842102 283.439117,932.666870 
	C287.418823,943.607483 291.559814,954.489563 295.660767,965.385742 
	C296.269073,967.001953 297.025085,968.562561 298.971466,970.127258 
	C301.390991,963.659424 303.812653,957.192322 306.229401,950.723450 
	C308.441406,944.802551 310.823181,938.937683 312.808655,932.941650 
	C314.873505,926.705872 319.891479,929.319702 323.771210,929.174438 
	C327.978363,929.016907 326.953491,932.680969 326.959839,935.117676 
	C327.016235,956.766052 326.977325,978.414673 326.983276,1000.531616 
	C322.643097,1001.000000 318.286194,1001.000000 313.481628,1000.538147 
	C313.033966,987.842957 313.033966,975.609619 313.033966,961.824768 
	C309.628693,971.138611 306.682220,979.033691 303.869446,986.976135 
	C302.826141,989.922058 300.858063,991.678833 297.903412,990.837952 
	C296.037720,990.306946 293.786438,988.764160 293.042908,987.084412 
	C290.427673,981.176086 288.403503,975.007080 286.125916,968.947937 
	C285.245728,966.606323 284.287598,964.294006 283.000000,961.048401 
	C283.000000,975.217224 283.000000,988.108582 283.000000,1001.000000 
	C278.975464,1001.000000 274.950897,1001.000000 270.463196,1001.000000 
z"/>
<path fill="#231F20" opacity="1.000000" stroke="none" 
	d="
M455.464661,1001.000000 
	C455.000397,979.007812 455.093872,957.014832 454.923401,935.023987 
	C454.888916,930.576111 456.104584,928.721619 460.835938,928.913330 
	C468.820190,929.236877 476.828461,928.908569 484.823730,929.035339 
	C493.309021,929.169922 499.691833,934.001099 502.441742,942.086487 
	C505.340363,950.609009 503.305145,960.039978 497.074554,964.835205 
	C494.703796,966.659790 494.550415,968.354919 495.405426,970.818726 
	C498.298401,979.155029 501.123322,987.515259 503.923737,995.883179 
	C504.392059,997.282593 504.608612,998.766235 504.970734,1000.605469 
	C500.310760,1001.000000 495.621490,1001.000000 490.459900,1000.611328 
	C486.964447,991.277466 483.998260,982.312561 480.893372,973.395935 
	C479.419403,969.162964 475.708557,969.945618 472.458588,970.121704 
	C468.885040,970.315369 469.018829,973.089172 469.012726,975.618042 
	C468.992310,984.078674 469.001923,992.539368 469.000000,1001.000000 
	C464.643097,1001.000000 460.286194,1001.000000 455.464661,1001.000000 
M488.437103,953.824097 
	C490.619934,948.898987 489.707458,943.975525 485.485718,943.075439 
	C480.618042,942.037659 475.222260,941.891968 470.457458,943.034363 
	C469.214355,943.332275 469.442169,949.855164 469.049194,953.524963 
	C468.980682,954.164978 468.973236,954.986389 469.310303,955.457214 
	C469.935028,956.329834 470.802612,957.621033 471.625366,957.664124 
	C477.313568,957.962158 483.304352,959.392883 488.437103,953.824097 
z"/>
<path fill="#231F20" opacity="1.000000" stroke="none" 
	d="
M397.464661,1001.000000 
	C397.000366,979.036194 397.124084,957.071167 396.905640,935.109558 
	C396.857086,930.233887 398.505280,928.720520 403.236328,928.916138 
	C410.877441,929.232117 418.541656,928.946228 426.195129,929.018555 
	C434.308411,929.095215 440.175446,932.877441 443.511230,940.249268 
	C446.880096,947.694153 445.588898,958.233093 440.225220,963.085571 
	C436.663605,966.307617 436.413940,969.235413 437.890198,973.531677 
	C440.903473,982.301208 443.303253,991.281494 445.977844,1000.587524 
	C441.643097,1001.000000 437.286194,1001.000000 432.415405,1000.627014 
	C428.908691,991.598694 425.774078,982.988831 422.981384,974.269470 
	C421.525208,969.722961 418.221313,969.800049 414.607574,970.075989 
	C410.675507,970.376282 411.024658,973.344238 411.014526,976.001160 
	C410.982788,984.333984 411.001068,992.667053 411.000000,1001.000000 
	C406.643097,1001.000000 402.286194,1001.000000 397.464661,1001.000000 
M425.736450,942.208679 
	C422.074005,942.148987 418.411072,942.108948 414.749237,942.023438 
	C411.911621,941.957214 410.577362,943.571045 411.094727,946.093018 
	C411.897491,950.006470 408.508240,954.798889 413.475830,957.836060 
	C413.606903,957.916321 413.801331,957.920105 413.965088,957.915894 
	C417.454498,957.826599 420.977509,957.998596 424.423828,957.563721 
	C428.084473,957.101868 430.475220,954.828369 430.880371,950.996277 
	C431.274536,947.268188 430.625580,943.956482 425.736450,942.208679 
z"/>
<path fill="#231F20" opacity="1.000000" stroke="none" 
	d="
M1.000000,929.468628 
	C10.158311,927.200500 15.240681,931.139709 18.588381,939.740295 
	C22.079121,948.708374 27.036346,957.106750 31.378782,965.740906 
	C32.092182,967.159424 32.941196,968.509705 34.368618,971.018005 
	C34.699429,968.666687 35.000549,967.603577 34.973980,966.548767 
	C34.706059,955.910095 34.509182,945.266968 34.013645,934.638062 
	C33.827953,930.655151 34.863239,928.499756 39.207508,928.990662 
	C40.030205,929.083679 40.884285,929.091919 41.704041,928.985901 
	C46.363113,928.383118 48.150723,930.115295 48.096462,935.064819 
	C47.858971,956.728821 47.977276,978.396729 47.983246,1000.531616 
	C43.975456,1001.000000 39.950912,1001.000000 35.459427,1000.624268 
	C28.659826,987.006775 22.327169,973.765137 15.994513,960.523438 
	C15.329675,960.675049 14.664838,960.826599 14.000000,960.978149 
	C14.000000,974.318787 14.000000,987.659363 14.000000,1001.000000 
	C9.689094,1001.000000 5.378186,1001.000000 1.000000,1001.000000 
	C1.000000,977.312500 1.000000,953.624878 1.000000,929.468628 
z"/>
<path fill="#231F20" opacity="1.000000" stroke="none" 
	d="
M349.468658,1001.000000 
	C348.807678,1000.545776 348.743927,999.859131 348.404266,999.671326 
	C338.968597,994.453491 337.562775,985.844238 337.921967,976.142151 
	C338.278961,966.498291 337.949585,956.830566 338.015625,947.174011 
	C338.093750,935.752563 345.748505,928.127380 357.165833,928.008667 
	C360.828400,927.970520 364.495148,927.908691 368.154144,928.031128 
	C377.981812,928.359863 385.810791,936.126831 385.948517,945.997559 
	C386.120361,958.316223 385.996277,970.639099 385.987915,982.960144 
	C385.982452,990.989990 381.125336,996.012512 375.083618,1000.671753 
	C366.645782,1001.000000 358.291534,1001.000000 349.468658,1001.000000 
M352.000000,970.485901 
	C352.003052,973.651611 351.935516,976.819336 352.024048,979.982666 
	C352.201019,986.305237 355.223724,988.989563 362.020050,988.981628 
	C368.804749,988.973755 371.897369,986.286133 371.962433,979.942688 
	C372.068359,969.613464 372.065002,959.281555 371.960938,948.952271 
	C371.902771,943.177795 368.499725,940.201660 362.227600,940.062012 
	C355.890991,939.920898 352.129517,943.124695 352.034515,948.997070 
	C351.924042,955.826660 352.003174,962.659363 352.000000,970.485901 
z"/>
<path fill="#231F20" opacity="1.000000" stroke="none" 
	d="
M71.468658,1001.000000 
	C70.807785,1000.545837 70.744110,999.859314 70.404579,999.671509 
	C60.971516,994.454956 59.562756,985.848572 59.921978,976.147766 
	C60.279022,966.505737 59.949520,956.839844 60.015606,947.185120 
	C60.094715,935.627991 67.582870,928.140869 79.097397,928.007874 
	C82.259888,927.971375 85.423355,927.979248 88.586044,928.005737 
	C100.125191,928.102356 107.744102,935.389038 107.942932,946.961548 
	C108.148811,958.943787 108.024124,970.932373 107.978477,982.917969 
	C107.948044,990.908997 102.987282,995.908569 97.083801,1000.671509 
	C88.645767,1001.000000 80.291534,1001.000000 71.468658,1001.000000 
M74.000000,959.509277 
	C74.003059,966.332947 73.919220,973.158020 74.034599,979.979797 
	C74.141472,986.298645 77.214706,988.981567 83.999588,988.981689 
	C90.784737,988.981812 93.892822,986.298828 93.961540,979.980713 
	C94.071960,969.829590 94.048019,959.676147 93.974266,949.524353 
	C93.930176,943.455505 90.431870,940.171936 84.178764,940.061951 
	C77.627228,939.946716 74.128563,943.182434 74.014107,949.527466 
	C73.960091,952.522217 74.001717,955.518799 74.000000,959.509277 
z"/>
<path fill="#231F20" opacity="1.000000" stroke="none" 
	d="
M523.468628,1001.000000 
	C522.308289,1000.113037 521.792480,998.946228 520.896973,998.383667 
	C514.070923,994.094788 512.045105,987.527100 512.012085,980.014709 
	C511.966766,969.704773 512.118652,959.392883 511.971649,949.084839 
	C511.806549,937.504639 520.304016,926.639404 533.067688,927.953125 
	C536.194824,928.274963 539.387451,927.895996 542.540344,928.044067 
	C552.613647,928.516968 559.931519,936.115845 559.984314,946.185974 
	C560.044434,957.659851 559.754639,969.141235 560.083069,980.606018 
	C560.315247,988.711670 557.548035,994.818115 550.481689,998.905029 
	C549.945496,999.215027 549.600891,999.856323 549.083618,1000.671814 
	C540.645752,1001.000000 532.291504,1001.000000 523.468628,1001.000000 
M546.000000,978.296631 
	C545.997803,968.651062 546.273254,958.992432 545.817383,949.368347 
	C545.687500,946.625549 544.145813,942.751526 542.021240,941.522034 
	C535.174255,937.559570 525.485718,941.306335 525.909790,950.721680 
	C526.335815,960.181763 525.959290,969.676147 526.017944,979.155029 
	C526.057678,985.572388 529.514771,988.937439 535.909363,988.982483 
	C543.025269,989.032593 545.832886,986.318726 546.000000,978.296631 
z"/>
<path fill="#231F20" opacity="1.000000" stroke="none" 
	d="
M124.468636,1001.000000 
	C121.560593,998.331909 118.945869,995.801147 116.722382,992.963806 
	C113.281616,988.573181 113.682259,987.230591 118.596138,984.713318 
	C119.928879,984.030640 121.330505,983.463806 122.600914,982.682007 
	C125.004623,981.202576 126.364883,981.571960 128.284515,984.000916 
	C130.054062,986.239990 133.071167,988.195312 135.852844,988.779053 
	C140.889603,989.836121 144.939926,987.147644 146.095490,982.982727 
	C147.371567,978.383606 144.524124,975.759399 141.093155,973.769775 
	C135.640533,970.607910 129.787491,968.078674 124.566360,964.589661 
	C117.551857,959.902100 114.958435,952.768372 116.233551,944.554321 
	C117.439613,936.785217 121.334274,930.461121 129.500580,928.836121 
	C141.645630,926.419373 152.137497,927.775146 157.681229,936.953796 
	C159.795425,940.454224 159.763504,942.715271 155.626556,944.200134 
	C154.383102,944.646423 153.175903,945.274841 152.065399,945.994690 
	C149.039764,947.956055 146.974075,947.736267 144.749878,944.392334 
	C141.412231,939.374146 136.339493,938.962585 132.398941,942.734863 
	C129.082153,945.910217 129.157440,950.405762 133.140564,952.929810 
	C137.182465,955.491089 141.684189,957.325317 145.978424,959.489990 
	C157.681305,965.389038 161.727310,973.444580 159.901505,986.360901 
	C158.992142,992.794067 153.978577,996.092468 150.079315,1000.674927 
	C141.645767,1001.000000 133.291534,1001.000000 124.468636,1001.000000 
z"/>
<path fill="#231F20" opacity="1.000000" stroke="none" 
	d="
M180.458054,1001.000000 
	C179.508469,1000.375488 179.148529,999.470154 178.505539,999.168823 
	C170.087280,995.224304 166.806671,988.352783 166.988739,979.407166 
	C167.059784,975.916809 166.972565,972.423523 167.008972,968.932068 
	C167.085800,961.563965 169.936722,955.441223 176.474228,951.966370 
	C182.999512,948.497925 189.622650,948.977966 195.492310,954.040588 
	C196.100510,954.565125 196.822937,954.957275 198.339584,955.984741 
	C198.615143,953.853333 198.951904,952.374451 198.971771,950.891296 
	C199.040741,945.737671 198.915024,940.580566 199.034698,935.428772 
	C199.099030,932.660278 197.945282,929.086731 202.893127,928.999817 
	C207.770386,928.914307 206.975189,932.332581 206.981781,935.215698 
	C207.018250,951.178101 207.002579,967.140747 206.998428,983.103271 
	C206.996964,988.756592 206.977646,994.409912 206.983246,1000.531616 
	C204.958328,1001.000000 202.916672,1001.000000 200.456802,1000.591797 
	C199.865265,998.347046 199.691925,996.510620 199.397400,993.390259 
	C195.946945,996.517090 193.473465,998.758545 191.000000,1001.000000 
	C187.638718,1001.000000 184.277420,1001.000000 180.458054,1001.000000 
M176.032135,981.987610 
	C177.376831,989.002991 181.197617,992.862000 186.877060,992.941223 
	C192.428772,993.018616 197.283829,988.913086 198.020142,982.423279 
	C198.607712,977.244690 198.540833,971.878052 197.895035,966.703369 
	C197.156021,960.781799 191.677307,956.731506 186.335068,957.215393 
	C180.368546,957.755859 176.256424,962.226074 176.042252,968.637939 
	C175.903778,972.783630 176.012375,976.937622 176.032135,981.987610 
z"/>
<path fill="#F5821F" opacity="1.000000" stroke="none" 
	d="
M418.571533,0.999999 
	C419.596375,2.095507 420.192719,3.191016 420.559448,4.639664 
	C417.769318,6.070671 414.953033,6.766835 412.687805,8.285151 
	C388.631897,24.409149 364.618042,40.597042 340.691620,56.912544 
	C329.874054,64.289047 331.256561,63.122135 334.423248,74.035652 
	C352.229095,135.400772 369.877045,196.811783 387.506317,258.227966 
	C389.494995,265.155975 391.028503,272.214661 392.773071,279.212738 
	C392.142731,279.517975 391.512390,279.823212 390.882050,280.128479 
	C382.402313,275.693604 379.275970,266.876221 375.165344,258.823730 
	C375.330658,258.647461 375.658813,258.292572 375.658813,258.292572 
	C379.406769,263.612366 383.154724,268.932129 386.902679,274.251923 
	C387.323517,274.049408 387.744354,273.846893 388.165222,273.644379 
	C386.529358,267.297485 384.973969,260.928528 383.243500,254.607513 
	C376.178741,228.800964 369.184326,202.974106 361.916656,177.224518 
	C357.380920,161.154068 352.414154,145.205063 347.621063,129.207489 
	C341.153381,107.620766 334.574585,86.066154 328.361450,64.406555 
	C327.859070,62.655117 329.170776,59.269070 330.714569,58.210556 
	C357.822937,39.623234 385.100250,21.282272 412.328918,2.870129 
	C412.852448,2.516123 413.231140,1.947906 413.338715,1.239817 
	C414.714355,1.000000 416.428711,1.000000 418.571533,0.999999 
z"/>
<path fill="#231F20" opacity="1.000000" stroke="none" 
	d="
M227.468536,1001.000000 
	C226.768509,1000.385803 226.721664,999.490356 226.278107,999.199280 
	C218.544312,994.122620 217.352890,986.550537 217.972534,978.161194 
	C218.411057,972.224060 217.518387,965.956177 219.132965,960.390991 
	C221.791702,951.227112 230.176514,947.641846 241.893341,949.090759 
	C250.946991,950.210266 257.057007,956.453186 257.822571,966.181335 
	C258.290924,972.133118 258.089203,978.162109 257.826599,984.140564 
	C257.517517,991.177185 252.992401,995.902954 248.079468,1000.674744 
	C241.312363,1001.000000 234.624710,1001.000000 227.468536,1001.000000 
M226.000153,972.648987 
	C226.013855,975.814148 225.858536,978.991089 226.076538,982.142090 
	C226.527176,988.655518 232.228439,994.205933 237.993179,993.961670 
	C244.546997,993.683960 248.858078,988.871704 248.979019,981.558777 
	C249.056137,976.895447 249.092743,972.226440 248.954224,967.565796 
	C248.793106,962.144958 244.102173,957.024048 238.789490,956.210205 
	C234.077057,955.488281 229.061661,958.641846 227.285995,963.899780 
	C226.452835,966.366943 226.404724,969.099182 226.000153,972.648987 
z"/>
<path fill="#000000" opacity="1.000000" stroke="none" 
	d="
M283.468658,1001.000000 
	C283.000000,988.108582 283.000000,975.217224 283.000000,961.048401 
	C284.287598,964.294006 285.245728,966.606323 286.125916,968.947937 
	C288.403503,975.007080 290.427673,981.176086 293.042908,987.084412 
	C293.786438,988.764160 296.037720,990.306946 297.903412,990.837952 
	C300.858063,991.678833 302.826141,989.922058 303.869446,986.976135 
	C306.682220,979.033691 309.628693,971.138611 313.033966,961.824768 
	C313.033966,975.609619 313.033966,987.842957 313.016968,1000.538147 
	C303.312439,1001.000000 293.624878,1001.000000 283.468658,1001.000000 
z"/>
<path fill="#000000" opacity="1.000000" stroke="none" 
	d="
M469.468536,1001.000000 
	C469.001923,992.539368 468.992310,984.078674 469.012726,975.618042 
	C469.018829,973.089172 468.885040,970.315369 472.458588,970.121704 
	C475.708557,969.945618 479.419403,969.162964 480.893372,973.395935 
	C483.998260,982.312561 486.964447,991.277466 489.993774,1000.611328 
	C483.312347,1001.000000 476.624725,1001.000000 469.468536,1001.000000 
z"/>
<path fill="#000000" opacity="1.000000" stroke="none" 
	d="
M411.468536,1001.000000 
	C411.001068,992.667053 410.982788,984.333984 411.014526,976.001160 
	C411.024658,973.344238 410.675507,970.376282 414.607574,970.075989 
	C418.221313,969.800049 421.525208,969.722961 422.981384,974.269470 
	C425.774078,982.988831 428.908691,991.598694 431.950745,1000.627014 
	C425.312347,1001.000000 418.624725,1001.000000 411.468536,1001.000000 
z"/>
<path fill="#000000" opacity="1.000000" stroke="none" 
	d="
M14.468533,1001.000000 
	C14.000000,987.659363 14.000000,974.318787 14.000000,960.978149 
	C14.664838,960.826599 15.329675,960.675049 15.994513,960.523438 
	C22.327169,973.765137 28.659826,987.006775 34.996239,1000.624268 
	C28.312355,1001.000000 21.624710,1001.000000 14.468533,1001.000000 
z"/>
<path fill="#000000" opacity="1.000000" stroke="none" 
	d="
M191.449982,1001.000000 
	C193.473465,998.758545 195.946945,996.517090 199.397400,993.390259 
	C199.691925,996.510620 199.865265,998.347046 200.019302,1000.591797 
	C197.299988,1001.000000 194.599976,1001.000000 191.449982,1001.000000 
z"/>
<path fill="#231F20" opacity="1.000000" stroke="none" 
	d="
M337.875610,853.075073 
	C329.516022,830.847168 328.136383,808.174255 331.032349,785.334167 
	C333.012726,769.715515 336.643921,754.306396 339.517426,738.799988 
	C339.627167,738.207886 339.531403,737.577698 338.429535,736.566467 
	C336.806396,740.042358 334.967621,743.435364 333.594635,747.007385 
	C323.639435,772.907288 316.323364,799.520264 314.078156,827.237793 
	C312.737610,843.787109 312.485107,860.434082 312.106995,877.045410 
	C312.004059,881.566589 310.722900,883.145935 306.098450,883.086609 
	C288.937683,882.866211 271.760468,882.634888 254.615112,883.194031 
	C248.459061,883.394836 244.988007,879.909424 241.303192,876.615479 
	C217.420883,855.265930 195.021957,832.456970 178.006821,805.133362 
	C171.205688,794.211792 166.501389,781.984863 160.827209,770.359619 
	C160.632843,769.961426 160.272095,769.644409 159.424988,769.514648 
	C154.438492,813.656250 167.497772,851.318726 201.177063,881.606750 
	C200.851288,881.946899 200.525497,882.287048 200.199722,882.627197 
	C198.302917,882.751404 196.406265,882.980957 194.509293,882.983643 
	C175.512726,883.010498 156.499878,882.509521 137.524063,883.137878 
	C118.531761,883.766663 101.828125,877.592041 86.267494,867.735291 
	C61.180481,851.844177 47.933098,828.159729 43.072094,799.426697 
	C37.938572,769.082825 42.760578,739.518860 50.315567,710.135559 
	C51.876163,704.066040 54.573433,701.283875 60.837006,699.627258 
	C111.676353,686.181458 162.385223,672.242615 213.141632,658.482605 
	C223.069199,655.791260 233.030487,653.224365 243.892181,650.358276 
	C236.898621,691.239746 232.415497,731.375854 244.057312,771.236389 
	C244.721481,771.363586 245.385635,771.490845 246.049789,771.618042 
	C248.731750,765.133301 251.365997,758.628296 254.104462,752.167419 
	C262.933105,731.338196 270.622162,709.915710 280.988831,689.880066 
	C291.043884,670.446655 303.763885,652.379761 315.601349,633.897095 
	C317.032379,631.662720 320.044128,629.831848 322.683990,629.079041 
	C340.446808,624.014343 358.305908,619.287048 376.136078,614.458801 
	C424.004791,601.496704 471.873077,588.532898 519.745850,575.585632 
	C526.632446,573.723206 533.542847,571.948242 541.397400,569.881409 
	C540.795288,572.293457 540.580383,574.040222 539.933838,575.609070 
	C532.264893,594.217468 525.129150,613.076416 516.668945,631.320312 
	C505.250610,655.943115 492.544098,679.965271 480.860260,704.469177 
	C467.171844,733.177185 456.922211,763.161743 453.385803,794.838196 
	C451.252441,813.947388 451.377563,833.344177 451.187500,852.618652 
	C451.102875,861.196350 452.602997,869.808655 453.672333,878.369263 
	C454.088531,881.700989 453.113861,883.007385 449.805664,883.003906 
	C419.144562,882.971680 388.483063,883.043396 357.823181,882.847290 
	C355.932648,882.835205 353.255066,881.284302 352.305115,879.655334 
	C347.292664,871.060242 342.717194,862.210327 337.875610,853.075073 
z"/>
<path fill="#231F20" opacity="1.000000" stroke="none" 
	d="
M80.406738,923.963196 
	C76.713326,923.527405 76.652946,921.692871 78.131989,919.410645 
	C81.018776,914.956055 83.953163,910.529724 86.994019,906.179932 
	C87.600716,905.312073 88.750526,904.308228 89.685219,904.271667 
	C94.560860,904.081116 99.447937,904.182739 105.810844,904.182739 
	C104.059753,906.689270 103.336121,908.065369 102.301552,909.143127 
	C98.968597,912.615601 95.299576,915.788696 92.180046,919.436340 
	C89.079514,923.061768 85.498764,924.693726 80.406738,923.963196 
z"/>
<path fill="#F5821F" opacity="1.000000" stroke="none" 
	d="
M362.658691,239.292435 
	C366.850311,245.445297 371.041901,251.598160 375.446167,258.021790 
	C375.658813,258.292572 375.330658,258.647461 374.851776,258.705536 
	C370.248596,252.509079 366.124298,246.254547 362.165283,239.823700 
	C362.330597,239.647369 362.658691,239.292435 362.658691,239.292435 
z"/>
<path fill="#F5821F" opacity="1.000000" stroke="none" 
	d="
M344.562134,213.541260 
	C347.604034,217.538055 350.457733,221.686798 353.342712,226.264404 
	C353.373993,226.693237 353.000000,227.000000 352.686432,226.881805 
	C349.581909,222.509079 346.790955,218.254532 344.000000,214.000000 
	C344.000000,214.000000 344.373993,213.693237 344.562134,213.541260 
z"/>
<path fill="#F5821F" opacity="1.000000" stroke="none" 
	d="
M353.562134,226.541260 
	C356.578033,230.509857 359.405792,234.630432 362.446106,239.021713 
	C362.658691,239.292435 362.330597,239.647369 361.851746,239.705490 
	C358.581909,235.509079 355.790955,231.254547 353.000000,227.000000 
	C353.000000,227.000000 353.373993,226.693237 353.562134,226.541260 
z"/>
<path fill="#F5821F" opacity="1.000000" stroke="none" 
	d="
M352.686432,226.881805 
	C355.790955,231.254547 358.581909,235.509079 361.686401,239.881805 
	C366.124298,246.254547 370.248596,252.509079 374.686462,258.881805 
	C379.275970,266.876221 382.402313,275.693604 390.882050,280.128479 
	C391.512390,279.823212 392.142731,279.517975 392.773071,279.212738 
	C391.028503,272.214661 389.494995,265.155975 387.506317,258.227966 
	C369.877045,196.811783 352.229095,135.400772 334.423248,74.035652 
	C331.256561,63.122135 329.874054,64.289047 340.691620,56.912544 
	C364.618042,40.597042 388.631897,24.409149 412.687805,8.285151 
	C414.953033,6.766835 417.769318,6.070671 420.723572,4.976444 
	C427.337311,11.398189 433.557281,17.836290 439.931000,24.956453 
	C441.427979,27.078171 442.771179,28.517828 444.114410,29.957489 
	C444.692749,30.422512 445.271088,30.887527 445.966949,31.994762 
	C447.421234,34.071175 448.757965,35.505371 450.094696,36.939575 
	C450.094696,36.939575 450.026642,36.973106 450.061127,37.313774 
	C451.428619,39.082825 452.761658,40.511204 454.094696,41.939583 
	C454.094696,41.939575 454.026642,41.973106 454.061523,42.313648 
	C455.226959,43.823685 456.357483,44.993183 457.488007,46.162682 
	C457.488007,46.162678 457.757477,46.247585 457.705322,46.743561 
	C458.597839,48.213833 459.542542,49.188129 460.487244,50.162415 
	C460.487244,50.162411 460.757111,50.247288 460.705139,50.743401 
	C461.597870,52.213814 462.542572,53.188110 463.487244,54.162407 
	C463.487244,54.162411 463.757111,54.247288 463.705139,54.743404 
	C464.597870,56.213814 465.542572,57.188110 466.487244,58.162407 
	C466.487244,58.162411 466.757446,58.247681 466.701111,58.749504 
	C466.925964,62.313129 467.586273,65.064400 471.486267,65.162064 
	C471.486267,65.162064 471.524689,65.157036 471.531555,65.175156 
	C472.455566,67.611473 473.055756,70.214325 474.339844,72.418777 
	C485.146637,90.970825 497.034851,108.963005 506.759644,128.059631 
	C523.338257,160.615082 536.278625,194.713745 546.057678,229.990982 
	C552.968872,254.922592 558.040710,280.191132 560.760193,305.891632 
	C562.035400,317.943542 562.635803,330.095093 562.932068,342.216400 
	C563.513733,366.013672 564.264893,389.831329 563.868225,413.622559 
	C563.175110,455.189728 557.551636,496.174255 547.171448,536.477112 
	C546.301941,539.852966 544.438965,541.375000 541.182495,542.249512 
	C509.975769,550.629639 478.805206,559.144470 447.618713,567.600281 
	C412.091919,577.232910 376.561310,586.851501 341.025055,596.449158 
	C338.826538,597.042908 336.564056,597.399841 334.065826,597.922546 
	C334.065826,593.831421 333.734650,590.226379 334.120667,586.699829 
	C336.291718,566.866882 334.352356,547.203247 332.248627,527.501892 
	C328.862122,495.786835 322.134033,464.723663 314.117950,433.936188 
	C309.756104,417.183655 304.475281,400.668060 299.467834,384.088226 
	C298.661377,381.418030 297.413208,378.756073 295.789917,376.508759 
	C294.934998,375.325226 292.749298,374.412079 291.314606,374.589600 
	C290.411224,374.701416 289.254486,377.007355 289.119110,378.416199 
	C287.975159,390.321808 287.309448,402.277618 285.979309,414.160065 
	C284.037689,431.504547 281.929169,448.839142 279.423676,466.110016 
	C272.431763,514.306702 260.648651,561.488770 249.358917,608.795654 
	C247.005981,618.655090 243.338730,623.223694 233.199585,625.794128 
	C189.451996,636.885071 145.990555,649.104492 102.421799,660.901428 
	C93.418709,663.339172 84.407204,665.746277 75.386330,668.117126 
	C74.007347,668.479614 72.556313,668.567932 69.762169,668.991760 
	C71.941864,663.674377 73.517311,659.287781 75.500076,655.093811 
	C81.963959,641.421448 89.040031,628.019104 95.022064,614.142700 
	C103.758934,593.876038 111.997375,573.384033 120.001373,552.814209 
	C131.041245,524.442200 137.881912,494.909698 142.390686,464.883820 
	C144.632919,449.951782 146.099319,434.845734 146.895813,419.764435 
	C149.853882,363.755981 156.314545,308.447540 174.390121,254.904388 
	C188.132065,214.198151 207.770233,176.921753 236.067215,144.591705 
	C248.966187,129.854324 263.361511,116.423828 277.156433,102.477989 
	C278.488800,101.131050 280.376556,100.333488 282.256805,99.119255 
	C283.008575,100.377586 283.720398,101.129784 283.943573,102.006393 
	C290.766876,128.809143 303.454926,152.948105 317.899200,176.238403 
	C325.096405,187.843430 332.824707,199.119873 340.369720,210.507217 
	C341.174896,211.722458 342.362610,212.684235 343.686432,213.881805 
	C346.790955,218.254532 349.581909,222.509079 352.686432,226.881805 
z"/>
<path fill="#F5821F" opacity="1.000000" stroke="none" 
	d="
M471.307739,64.893784 
	C467.586273,65.064400 466.925964,62.313129 466.742218,58.885078 
	C468.269501,60.554386 469.699341,62.589939 471.307739,64.893784 
z"/>
<path fill="#F5821F" opacity="1.000000" stroke="none" 
	d="
M443.978455,29.649441 
	C442.771179,28.517828 441.427979,27.078171 440.063568,25.261971 
	C441.309113,26.370752 442.575836,27.856075 443.978455,29.649441 
z"/>
<path fill="#F5821F" opacity="1.000000" stroke="none" 
	d="
M449.961304,36.632111 
	C448.757965,35.505371 447.421234,34.071175 446.063416,32.261204 
	C447.304230,33.365170 448.566071,34.844910 449.961304,36.632111 
z"/>
<path fill="#F5821F" opacity="1.000000" stroke="none" 
	d="
M453.961884,41.632820 
	C452.761658,40.511204 451.428619,39.082825 450.077911,37.279762 
	C451.316498,38.378735 452.572784,39.852394 453.961884,41.632820 
z"/>
<path fill="#F5821F" opacity="1.000000" stroke="none" 
	d="
M457.314148,45.903378 
	C456.357483,44.993183 455.226959,43.823685 454.078308,42.279629 
	C455.086914,43.151405 456.113617,44.397739 457.314148,45.903378 
z"/>
<path fill="#F5821F" opacity="1.000000" stroke="none" 
	d="
M460.322845,49.919453 
	C459.542542,49.188129 458.597839,48.213833 457.746277,46.878761 
	C458.612396,47.570820 459.385406,48.623653 460.322845,49.919453 
z"/>
<path fill="#F5821F" opacity="1.000000" stroke="none" 
	d="
M463.322876,53.919434 
	C462.542572,53.188110 461.597870,52.213814 460.746277,50.878746 
	C461.612396,51.570805 462.385437,52.623638 463.322876,53.919434 
z"/>
<path fill="#F5821F" opacity="1.000000" stroke="none" 
	d="
M466.322845,57.919449 
	C465.542572,57.188110 464.597870,56.213814 463.746277,54.878757 
	C464.612366,55.570827 465.385406,56.623657 466.322845,57.919449 
z"/>
<path fill="#000000" opacity="1.000000" stroke="none" 
	d="
M488.200806,954.123779 
	C483.304352,959.392883 477.313568,957.962158 471.625366,957.664124 
	C470.802612,957.621033 469.935028,956.329834 469.310303,955.457214 
	C468.973236,954.986389 468.980682,954.164978 469.049194,953.524963 
	C469.442169,949.855164 469.214355,943.332275 470.457458,943.034363 
	C475.222260,941.891968 480.618042,942.037659 485.485718,943.075439 
	C489.707458,943.975525 490.619934,948.898987 488.200806,954.123779 
z"/>
<path fill="#000000" opacity="1.000000" stroke="none" 
	d="
M426.146545,942.318604 
	C430.625580,943.956482 431.274536,947.268188 430.880371,950.996277 
	C430.475220,954.828369 428.084473,957.101868 424.423828,957.563721 
	C420.977509,957.998596 417.454498,957.826599 413.965088,957.915894 
	C413.801331,957.920105 413.606903,957.916321 413.475830,957.836060 
	C408.508240,954.798889 411.897491,950.006470 411.094727,946.093018 
	C410.577362,943.571045 411.911621,941.957214 414.749237,942.023438 
	C418.411072,942.108948 422.074005,942.148987 426.146545,942.318604 
z"/>
<path fill="#000000" opacity="1.000000" stroke="none" 
	d="
M352.000000,969.988281 
	C352.003174,962.659363 351.924042,955.826660 352.034515,948.997070 
	C352.129517,943.124695 355.890991,939.920898 362.227600,940.062012 
	C368.499725,940.201660 371.902771,943.177795 371.960938,948.952271 
	C372.065002,959.281555 372.068359,969.613464 371.962433,979.942688 
	C371.897369,986.286133 368.804749,988.973755 362.020050,988.981628 
	C355.223724,988.989563 352.201019,986.305237 352.024048,979.982666 
	C351.935516,976.819336 352.003052,973.651611 352.000000,969.988281 
z"/>
<path fill="#000000" opacity="1.000000" stroke="none" 
	d="
M74.000000,959.011902 
	C74.001717,955.518799 73.960091,952.522217 74.014107,949.527466 
	C74.128563,943.182434 77.627228,939.946716 84.178764,940.061951 
	C90.431870,940.171936 93.930176,943.455505 93.974266,949.524353 
	C94.048019,959.676147 94.071960,969.829590 93.961540,979.980713 
	C93.892822,986.298828 90.784737,988.981812 83.999588,988.981689 
	C77.214706,988.981567 74.141472,986.298645 74.034599,979.979797 
	C73.919220,973.158020 74.003059,966.332947 74.000000,959.011902 
z"/>
<path fill="#000000" opacity="1.000000" stroke="none" 
	d="
M545.999695,978.762939 
	C545.832886,986.318726 543.025269,989.032593 535.909363,988.982483 
	C529.514771,988.937439 526.057678,985.572388 526.017944,979.155029 
	C525.959290,969.676147 526.335815,960.181763 525.909790,950.721680 
	C525.485718,941.306335 535.174255,937.559570 542.021240,941.522034 
	C544.145813,942.751526 545.687500,946.625549 545.817383,949.368347 
	C546.273254,958.992432 545.997803,968.651062 545.999695,978.762939 
z"/>
<path fill="#000000" opacity="1.000000" stroke="none" 
	d="
M176.021194,981.537720 
	C176.012375,976.937622 175.903778,972.783630 176.042252,968.637939 
	C176.256424,962.226074 180.368546,957.755859 186.335068,957.215393 
	C191.677307,956.731506 197.156021,960.781799 197.895035,966.703369 
	C198.540833,971.878052 198.607712,977.244690 198.020142,982.423279 
	C197.283829,988.913086 192.428772,993.018616 186.877060,992.941223 
	C181.197617,992.862000 177.376831,989.002991 176.021194,981.537720 
z"/>
<path fill="#000000" opacity="1.000000" stroke="none" 
	d="
M226.000488,972.180176 
	C226.404724,969.099182 226.452835,966.366943 227.285995,963.899780 
	C229.061661,958.641846 234.077057,955.488281 238.789490,956.210205 
	C244.102173,957.024048 248.793106,962.144958 248.954224,967.565796 
	C249.092743,972.226440 249.056137,976.895447 248.979019,981.558777 
	C248.858078,988.871704 244.546997,993.683960 237.993179,993.961670 
	C232.228439,994.205933 226.527176,988.655518 226.076538,982.142090 
	C225.858536,978.991089 226.013855,975.814148 226.000488,972.180176 
z"/>
</svg>