<?xml version="1.0" standalone="no"?>
<!DOCTYPE svg PUBLIC "-//W3C//DTD SVG 20010904//EN"
 "http://www.w3.org/TR/2001/REC-SVG-20010904/DTD/svg10.dtd">
<svg version="1.0" xmlns="http://www.w3.org/2000/svg"
 width="567.000000pt" height="1000.000000pt" viewBox="0 0 567.000000 1000.000000"
 preserveAspectRatio="xMidYMid meet">

<g transform="translate(0.000000,1000.000000) scale(0.100000,-0.100000)"
fill="#000000" stroke="none">
<path d="M4275 4002 c-600 -164 -1096 -301 -1103 -305 -20 -13 -232 -339 -308
-472 -92 -163 -159 -308 -249 -537 -120 -307 -167 -418 -175 -418 -9 0 -34 88
-56 192 -21 100 -30 495 -15 658 6 69 21 180 32 248 12 68 20 125 18 127 -2 2
-430 -112 -951 -253 l-947 -256 -22 -81 c-70 -262 -93 -443 -86 -689 4 -149 9
-198 30 -281 80 -315 251 -528 528 -660 178 -83 190 -85 634 -85 l390 0 -77
79 c-178 184 -290 401 -333 646 -17 94 -22 362 -9 432 l7 38 19 -70 c74 -272
377 -679 762 -1027 l109 -98 316 0 316 0 1 203 c1 358 50 665 160 996 43 128
152 386 161 378 2 -3 -8 -44 -22 -93 -77 -266 -109 -471 -109 -704 0 -298 56
-503 195 -717 l41 -63 498 0 497 0 -8 47 c-4 27 -13 136 -20 245 -30 477 45
901 242 1368 29 69 129 278 222 465 238 478 339 703 413 918 21 60 21 67 6 66
-9 0 -508 -134 -1107 -297z"/>
<path d="M820 880 c-33 -49 -60 -92 -60 -95 0 -3 24 -5 53 -5 l52 0 88 88 c48
48 84 91 81 95 -4 4 -40 7 -80 7 l-73 0 -61 -90z"/>
<path d="M726 718 c-21 -6 -56 -28 -76 -48 -55 -55 -63 -103 -58 -340 4 -214
8 -233 68 -284 43 -36 101 -49 198 -44 71 4 88 8 124 34 73 51 82 82 86 289 6
265 -14 337 -105 380 -45 22 -179 29 -237 13z m181 -132 l28 -24 3 -168 c4
-192 0 -226 -30 -254 -30 -28 -126 -28 -159 -1 -24 19 -24 23 -27 214 l-3 194
26 32 c24 28 33 31 80 31 43 0 60 -5 82 -24z"/>
<path d="M1288 716 c-58 -21 -86 -43 -108 -86 -24 -47 -27 -147 -6 -189 22
-42 78 -87 159 -127 126 -63 157 -115 102 -169 -34 -35 -115 -36 -149 -2 -13
13 -25 30 -28 38 -4 11 -16 9 -61 -13 -32 -15 -57 -34 -57 -41 0 -8 18 -35 41
-60 47 -54 83 -67 185 -67 101 0 163 32 198 103 44 87 31 182 -33 246 -21 21
-81 59 -133 85 -65 32 -98 54 -106 71 -23 49 22 105 84 105 24 0 40 -9 64 -37
l32 -36 54 26 c30 15 54 33 54 42 0 26 -85 103 -126 114 -52 15 -121 13 -166
-3z"/>
<path d="M3506 718 c-58 -16 -111 -74 -125 -137 -14 -68 -14 -365 0 -433 14
-64 65 -120 124 -137 51 -14 159 -14 210 0 58 16 110 75 124 139 14 66 14 364
0 431 -14 66 -67 121 -132 137 -55 14 -147 14 -201 0z m188 -139 c26 -30 26
-31 26 -210 0 -234 -7 -249 -110 -249 -104 0 -110 15 -110 250 l0 182 29 29
c25 25 37 29 84 29 49 0 58 -3 81 -31z"/>
<path d="M5258 720 c-53 -16 -97 -51 -117 -94 -19 -39 -21 -60 -21 -265 0
-203 2 -225 20 -261 33 -64 86 -93 183 -98 47 -2 101 1 127 8 56 15 114 72
129 125 14 52 14 408 0 460 -14 51 -73 110 -124 124 -46 13 -157 13 -197 1z
m177 -135 c25 -24 25 -25 25 -220 0 -195 0 -196 -25 -220 -20 -21 -34 -25 -83
-25 -50 0 -62 4 -83 26 -24 25 -24 28 -24 221 l0 195 28 24 c41 35 127 34 162
-1z"/>
<path d="M0 365 l0 -356 63 3 62 3 -4 218 c-2 119 -1 217 2 217 4 0 56 -99
117 -220 l111 -220 54 0 55 0 0 355 0 355 -60 0 -60 0 0 -222 -1 -223 -112
220 -112 220 -58 3 -57 3 0 -356z"/>
<path d="M1980 581 c0 -78 -3 -141 -6 -141 -3 0 -22 13 -42 29 -20 17 -49 33
-63 36 -37 9 -102 -11 -140 -42 -49 -41 -59 -77 -59 -209 0 -101 3 -121 22
-156 54 -96 192 -117 262 -39 27 30 36 26 36 -15 0 -34 1 -35 33 -32 l32 3 0
350 0 350 -37 3 -38 3 0 -140z m-60 -157 c48 -29 60 -62 60 -164 0 -100 -12
-136 -54 -164 -56 -36 -147 -10 -172 49 -20 48 -19 187 2 231 29 60 105 82
164 48z"/>
<path d="M2690 365 l0 -355 65 0 64 0 -5 217 -5 218 19 -45 c10 -25 38 -100
62 -168 l44 -123 39 3 39 3 59 159 c32 87 61 161 63 163 2 3 2 -92 -1 -211
l-6 -216 61 0 62 0 0 355 0 356 -57 -3 -57 -3 -80 -218 c-44 -119 -83 -214
-87 -210 -4 5 -40 98 -80 208 -40 110 -77 206 -82 213 -6 7 -32 12 -63 12
l-54 0 0 -355z"/>
<path d="M3970 365 l0 -355 60 0 59 0 3 148 3 147 59 0 59 0 51 -147 51 -148
68 0 c37 0 67 3 67 8 0 4 -24 77 -54 163 l-54 155 38 37 c79 74 79 208 0 287
-49 49 -98 60 -269 60 l-141 0 0 -355z m312 205 c26 -27 30 -36 25 -68 -10
-59 -36 -73 -131 -70 l-81 3 -3 69 c-2 38 -1 75 2 83 4 9 27 13 81 13 72 0 78
-2 107 -30z"/>
<path d="M4550 365 l0 -355 65 0 65 0 0 150 0 151 58 -3 57 -3 51 -145 52
-145 66 -3 c47 -2 66 1 66 9 0 7 -24 81 -52 165 l-53 152 28 22 c85 67 90 219
9 303 -41 43 -106 57 -269 57 l-143 0 0 -355z m315 210 c17 -16 25 -35 25 -60
0 -25 -8 -44 -25 -60 -22 -22 -32 -25 -105 -25 l-80 0 0 85 0 85 80 0 c73 0
83 -3 105 -25z"/>
<path d="M2304 510 c-44 -10 -91 -46 -111 -83 -21 -40 -30 -233 -14 -293 23
-84 92 -134 186 -133 86 1 144 32 175 95 17 32 20 59 20 161 0 139 -10 174
-59 216 -50 42 -121 56 -197 37z m135 -86 c41 -34 54 -83 50 -187 -5 -98 -21
-130 -82 -160 -46 -23 -94 -11 -132 35 -26 31 -26 34 -23 156 l3 124 33 29
c44 39 107 41 151 3z"/>
</g>
</svg>
